<mxfile host="app.diagrams.net" agent="Mozilla/5.0 (Windows NT 10.0; Win64; x64) AppleWebKit/537.36 (KHTML, like Gecko) Chrome/135.0.0.0 Safari/537.36" version="26.2.14">
  <diagram name="Page-1" id="w7RQ2Kluu5mRA7ETLE94">
    <mxGraphModel dx="2060" dy="1749" grid="1" gridSize="10" guides="1" tooltips="1" connect="1" arrows="1" fold="1" page="1" pageScale="1" pageWidth="827" pageHeight="1169" math="0" shadow="0">
      <root>
        <mxCell id="0" />
        <mxCell id="1" parent="0" />
        <mxCell id="UcJuo04WGB9nIGAPmIQf-73" value="" style="rounded=0;whiteSpace=wrap;html=1;" parent="1" vertex="1">
          <mxGeometry x="675" y="1340" width="615.5" height="180" as="geometry" />
        </mxCell>
        <mxCell id="UcJuo04WGB9nIGAPmIQf-14" value="" style="rounded=0;whiteSpace=wrap;html=1;" parent="1" vertex="1">
          <mxGeometry x="124.5" y="460" width="815.5" height="180" as="geometry" />
        </mxCell>
        <mxCell id="7DByCaR6NHAsQpXdXXvd-112" value="" style="rounded=0;whiteSpace=wrap;html=1;" parent="1" vertex="1">
          <mxGeometry x="240" y="750" width="265" height="470" as="geometry" />
        </mxCell>
        <mxCell id="7DByCaR6NHAsQpXdXXvd-17" value="" style="rounded=0;whiteSpace=wrap;html=1;" parent="1" vertex="1">
          <mxGeometry x="124.5" y="-30" width="615.5" height="180" as="geometry" />
        </mxCell>
        <mxCell id="ezu5WunfCK91MkvCIrWm-3" style="edgeStyle=orthogonalEdgeStyle;rounded=0;orthogonalLoop=1;jettySize=auto;html=1;entryX=0.5;entryY=1;entryDx=0;entryDy=0;" edge="1" parent="1" target="7DByCaR6NHAsQpXdXXvd-45">
          <mxGeometry relative="1" as="geometry">
            <mxPoint x="-40" y="340" as="sourcePoint" />
            <Array as="points">
              <mxPoint x="20" y="340" />
            </Array>
          </mxGeometry>
        </mxCell>
        <mxCell id="ezu5WunfCK91MkvCIrWm-4" style="edgeStyle=orthogonalEdgeStyle;rounded=0;orthogonalLoop=1;jettySize=auto;html=1;entryX=0;entryY=0.5;entryDx=0;entryDy=0;" edge="1" parent="1" target="cynZXW6-LG8qErR7lAh7-6">
          <mxGeometry relative="1" as="geometry">
            <mxPoint x="-40" y="340" as="sourcePoint" />
          </mxGeometry>
        </mxCell>
        <mxCell id="ezu5WunfCK91MkvCIrWm-5" style="edgeStyle=orthogonalEdgeStyle;rounded=0;orthogonalLoop=1;jettySize=auto;html=1;entryX=0.5;entryY=1;entryDx=0;entryDy=0;" edge="1" parent="1" target="7DByCaR6NHAsQpXdXXvd-15">
          <mxGeometry relative="1" as="geometry">
            <mxPoint x="-40" y="340" as="sourcePoint" />
          </mxGeometry>
        </mxCell>
        <mxCell id="ezu5WunfCK91MkvCIrWm-6" style="edgeStyle=orthogonalEdgeStyle;rounded=0;orthogonalLoop=1;jettySize=auto;html=1;entryX=0.5;entryY=0;entryDx=0;entryDy=0;" edge="1" parent="1" target="UcJuo04WGB9nIGAPmIQf-24">
          <mxGeometry relative="1" as="geometry">
            <mxPoint x="-40" y="340" as="sourcePoint" />
          </mxGeometry>
        </mxCell>
        <mxCell id="7DByCaR6NHAsQpXdXXvd-1" value="Secretario" style="shape=umlActor;verticalLabelPosition=bottom;verticalAlign=top;html=1;outlineConnect=0;" parent="1" vertex="1">
          <mxGeometry x="-80" y="310" width="30" height="60" as="geometry" />
        </mxCell>
        <mxCell id="7DByCaR6NHAsQpXdXXvd-6" value="" style="ellipse;whiteSpace=wrap;html=1;" parent="1" vertex="1">
          <mxGeometry x="293.5" y="10" width="120" height="80" as="geometry" />
        </mxCell>
        <mxCell id="7DByCaR6NHAsQpXdXXvd-7" value="CU4&lt;br&gt;Registrar Paciente" style="text;html=1;align=center;verticalAlign=middle;whiteSpace=wrap;rounded=0;" parent="1" vertex="1">
          <mxGeometry x="298.5" y="35" width="110" height="30" as="geometry" />
        </mxCell>
        <mxCell id="7DByCaR6NHAsQpXdXXvd-8" value="" style="ellipse;whiteSpace=wrap;html=1;" parent="1" vertex="1">
          <mxGeometry x="450" y="10" width="120" height="80" as="geometry" />
        </mxCell>
        <mxCell id="7DByCaR6NHAsQpXdXXvd-9" value="CU5&lt;br&gt;Modificar Paciente" style="text;html=1;align=center;verticalAlign=middle;whiteSpace=wrap;rounded=0;" parent="1" vertex="1">
          <mxGeometry x="455" y="35" width="110" height="30" as="geometry" />
        </mxCell>
        <mxCell id="7DByCaR6NHAsQpXdXXvd-13" value="" style="ellipse;whiteSpace=wrap;html=1;" parent="1" vertex="1">
          <mxGeometry x="600" y="10" width="120" height="80" as="geometry" />
        </mxCell>
        <mxCell id="7DByCaR6NHAsQpXdXXvd-14" value="CU6&lt;br&gt;Eliminar Paciente" style="text;html=1;align=center;verticalAlign=middle;whiteSpace=wrap;rounded=0;" parent="1" vertex="1">
          <mxGeometry x="605" y="35" width="110" height="30" as="geometry" />
        </mxCell>
        <mxCell id="UcJuo04WGB9nIGAPmIQf-7" style="edgeStyle=orthogonalEdgeStyle;rounded=0;orthogonalLoop=1;jettySize=auto;html=1;exitX=1;exitY=0.5;exitDx=0;exitDy=0;entryX=0;entryY=0.5;entryDx=0;entryDy=0;" parent="1" source="7DByCaR6NHAsQpXdXXvd-15" target="7DByCaR6NHAsQpXdXXvd-6" edge="1">
          <mxGeometry relative="1" as="geometry" />
        </mxCell>
        <mxCell id="UcJuo04WGB9nIGAPmIQf-12" style="edgeStyle=orthogonalEdgeStyle;rounded=0;orthogonalLoop=1;jettySize=auto;html=1;exitX=1;exitY=1;exitDx=0;exitDy=0;entryX=0.5;entryY=1;entryDx=0;entryDy=0;" parent="1" source="7DByCaR6NHAsQpXdXXvd-15" target="7DByCaR6NHAsQpXdXXvd-8" edge="1">
          <mxGeometry relative="1" as="geometry">
            <Array as="points">
              <mxPoint x="248" y="110" />
              <mxPoint x="510" y="110" />
            </Array>
          </mxGeometry>
        </mxCell>
        <mxCell id="UcJuo04WGB9nIGAPmIQf-13" style="edgeStyle=orthogonalEdgeStyle;rounded=0;orthogonalLoop=1;jettySize=auto;html=1;exitX=1;exitY=1;exitDx=0;exitDy=0;entryX=0.5;entryY=1;entryDx=0;entryDy=0;" parent="1" source="7DByCaR6NHAsQpXdXXvd-15" target="7DByCaR6NHAsQpXdXXvd-13" edge="1">
          <mxGeometry relative="1" as="geometry">
            <Array as="points">
              <mxPoint x="248" y="130" />
              <mxPoint x="660" y="130" />
            </Array>
          </mxGeometry>
        </mxCell>
        <mxCell id="7DByCaR6NHAsQpXdXXvd-15" value="" style="ellipse;whiteSpace=wrap;html=1;" parent="1" vertex="1">
          <mxGeometry x="145.5" y="10" width="120" height="80" as="geometry" />
        </mxCell>
        <mxCell id="7DByCaR6NHAsQpXdXXvd-16" value="CU3&lt;br&gt;Ver Pacientes" style="text;html=1;align=center;verticalAlign=middle;whiteSpace=wrap;rounded=0;" parent="1" vertex="1">
          <mxGeometry x="150.5" y="35" width="110" height="30" as="geometry" />
        </mxCell>
        <mxCell id="7DByCaR6NHAsQpXdXXvd-18" value="&lt;b&gt;&lt;font style=&quot;font-size: 14px;&quot;&gt;Pacientes&lt;/font&gt;&lt;/b&gt;" style="text;html=1;align=center;verticalAlign=middle;whiteSpace=wrap;rounded=0;" parent="1" vertex="1">
          <mxGeometry x="392.25" y="-20" width="80" height="30" as="geometry" />
        </mxCell>
        <mxCell id="7DByCaR6NHAsQpXdXXvd-45" value="" style="ellipse;whiteSpace=wrap;html=1;" parent="1" vertex="1">
          <mxGeometry x="-40" y="140" width="120" height="80" as="geometry" />
        </mxCell>
        <mxCell id="7DByCaR6NHAsQpXdXXvd-46" value="CU01&lt;br&gt;Ver Agenda Médica" style="text;html=1;align=center;verticalAlign=middle;whiteSpace=wrap;rounded=0;" parent="1" vertex="1">
          <mxGeometry x="-35" y="165" width="110" height="30" as="geometry" />
        </mxCell>
        <mxCell id="ezu5WunfCK91MkvCIrWm-7" style="edgeStyle=orthogonalEdgeStyle;rounded=0;orthogonalLoop=1;jettySize=auto;html=1;entryX=0;entryY=0.5;entryDx=0;entryDy=0;" edge="1" parent="1" target="cynZXW6-LG8qErR7lAh7-9">
          <mxGeometry relative="1" as="geometry">
            <mxPoint x="1220" y="289.9999999999998" as="targetPoint" />
            <mxPoint x="1160" y="260" as="sourcePoint" />
          </mxGeometry>
        </mxCell>
        <mxCell id="7DByCaR6NHAsQpXdXXvd-48" value="Médico" style="shape=umlActor;verticalLabelPosition=bottom;verticalAlign=top;html=1;outlineConnect=0;" parent="1" vertex="1">
          <mxGeometry x="1130" y="229" width="30" height="60" as="geometry" />
        </mxCell>
        <mxCell id="UcJuo04WGB9nIGAPmIQf-29" style="edgeStyle=orthogonalEdgeStyle;rounded=0;orthogonalLoop=1;jettySize=auto;html=1;exitX=0.5;exitY=0;exitDx=0;exitDy=0;entryX=0.5;entryY=1;entryDx=0;entryDy=0;" parent="1" target="7DByCaR6NHAsQpXdXXvd-56" edge="1">
          <mxGeometry relative="1" as="geometry">
            <mxPoint x="1145" y="219.99999999999977" as="sourcePoint" />
          </mxGeometry>
        </mxCell>
        <mxCell id="UcJuo04WGB9nIGAPmIQf-30" style="edgeStyle=orthogonalEdgeStyle;rounded=0;orthogonalLoop=1;jettySize=auto;html=1;exitX=1;exitY=0.5;exitDx=0;exitDy=0;entryX=0;entryY=0.5;entryDx=0;entryDy=0;" parent="1" source="7DByCaR6NHAsQpXdXXvd-56" target="7DByCaR6NHAsQpXdXXvd-60" edge="1">
          <mxGeometry relative="1" as="geometry" />
        </mxCell>
        <mxCell id="cynZXW6-LG8qErR7lAh7-12" style="edgeStyle=orthogonalEdgeStyle;rounded=0;orthogonalLoop=1;jettySize=auto;html=1;exitX=0.5;exitY=0;exitDx=0;exitDy=0;" parent="1" source="7DByCaR6NHAsQpXdXXvd-56" edge="1">
          <mxGeometry relative="1" as="geometry">
            <mxPoint x="1145" y="50" as="targetPoint" />
          </mxGeometry>
        </mxCell>
        <mxCell id="xL9Qbi1ejIpjgUSYCxYK-3" style="edgeStyle=orthogonalEdgeStyle;rounded=0;orthogonalLoop=1;jettySize=auto;html=1;exitX=1;exitY=0.5;exitDx=0;exitDy=0;entryX=0;entryY=0.5;entryDx=0;entryDy=0;" parent="1" source="7DByCaR6NHAsQpXdXXvd-56" target="xL9Qbi1ejIpjgUSYCxYK-1" edge="1">
          <mxGeometry relative="1" as="geometry" />
        </mxCell>
        <mxCell id="7DByCaR6NHAsQpXdXXvd-56" value="" style="ellipse;whiteSpace=wrap;html=1;" parent="1" vertex="1">
          <mxGeometry x="1085" y="100" width="120" height="80" as="geometry" />
        </mxCell>
        <mxCell id="7DByCaR6NHAsQpXdXXvd-57" value="CU12&lt;br&gt;Acceder Agenda" style="text;html=1;align=center;verticalAlign=middle;whiteSpace=wrap;rounded=0;" parent="1" vertex="1">
          <mxGeometry x="1090" y="125" width="110" height="30" as="geometry" />
        </mxCell>
        <mxCell id="7DByCaR6NHAsQpXdXXvd-60" value="" style="ellipse;whiteSpace=wrap;html=1;" parent="1" vertex="1">
          <mxGeometry x="1265.5" y="-30" width="120" height="80" as="geometry" />
        </mxCell>
        <mxCell id="7DByCaR6NHAsQpXdXXvd-61" value="CU14&lt;div&gt;Cancelar Turno&lt;/div&gt;" style="text;html=1;align=center;verticalAlign=middle;whiteSpace=wrap;rounded=0;" parent="1" vertex="1">
          <mxGeometry x="1270.5" y="-5" width="110" height="30" as="geometry" />
        </mxCell>
        <mxCell id="7DByCaR6NHAsQpXdXXvd-113" value="" style="ellipse;whiteSpace=wrap;html=1;" parent="1" vertex="1">
          <mxGeometry x="312.5" y="801" width="120" height="80" as="geometry" />
        </mxCell>
        <mxCell id="7DByCaR6NHAsQpXdXXvd-114" value="CU22&lt;br&gt;Eliminar Usuario" style="text;html=1;align=center;verticalAlign=middle;whiteSpace=wrap;rounded=0;" parent="1" vertex="1">
          <mxGeometry x="317.5" y="826" width="110" height="30" as="geometry" />
        </mxCell>
        <mxCell id="7DByCaR6NHAsQpXdXXvd-115" value="&lt;font style=&quot;font-size: 14px;&quot;&gt;&lt;b&gt;Login&lt;/b&gt;&lt;/font&gt;" style="text;html=1;align=center;verticalAlign=middle;whiteSpace=wrap;rounded=0;" parent="1" vertex="1">
          <mxGeometry x="342.5" y="761" width="60" height="30" as="geometry" />
        </mxCell>
        <mxCell id="7DByCaR6NHAsQpXdXXvd-116" value="" style="ellipse;whiteSpace=wrap;html=1;" parent="1" vertex="1">
          <mxGeometry x="312.5" y="901" width="120" height="80" as="geometry" />
        </mxCell>
        <mxCell id="7DByCaR6NHAsQpXdXXvd-117" value="CU21&lt;br&gt;Modificar Usuario" style="text;html=1;align=center;verticalAlign=middle;whiteSpace=wrap;rounded=0;" parent="1" vertex="1">
          <mxGeometry x="317.5" y="926" width="110" height="30" as="geometry" />
        </mxCell>
        <mxCell id="7DByCaR6NHAsQpXdXXvd-118" value="" style="ellipse;whiteSpace=wrap;html=1;" parent="1" vertex="1">
          <mxGeometry x="312.5" y="1000" width="120" height="80" as="geometry" />
        </mxCell>
        <mxCell id="7DByCaR6NHAsQpXdXXvd-119" value="CU20&lt;br&gt;Registrar Usuario" style="text;html=1;align=center;verticalAlign=middle;whiteSpace=wrap;rounded=0;" parent="1" vertex="1">
          <mxGeometry x="317.5" y="1025" width="110" height="30" as="geometry" />
        </mxCell>
        <mxCell id="YeKh92lcXTdL7GNYWZzl-15" style="edgeStyle=orthogonalEdgeStyle;rounded=0;orthogonalLoop=1;jettySize=auto;html=1;exitX=0.5;exitY=0;exitDx=0;exitDy=0;entryX=0.5;entryY=1;entryDx=0;entryDy=0;" parent="1" source="7DByCaR6NHAsQpXdXXvd-120" target="7DByCaR6NHAsQpXdXXvd-118" edge="1">
          <mxGeometry relative="1" as="geometry" />
        </mxCell>
        <mxCell id="YeKh92lcXTdL7GNYWZzl-16" style="edgeStyle=orthogonalEdgeStyle;rounded=0;orthogonalLoop=1;jettySize=auto;html=1;exitX=1;exitY=0;exitDx=0;exitDy=0;entryX=1;entryY=0.5;entryDx=0;entryDy=0;" parent="1" source="7DByCaR6NHAsQpXdXXvd-120" target="7DByCaR6NHAsQpXdXXvd-116" edge="1">
          <mxGeometry relative="1" as="geometry">
            <Array as="points">
              <mxPoint x="453" y="1112" />
              <mxPoint x="453" y="941" />
            </Array>
          </mxGeometry>
        </mxCell>
        <mxCell id="YeKh92lcXTdL7GNYWZzl-17" style="edgeStyle=orthogonalEdgeStyle;rounded=0;orthogonalLoop=1;jettySize=auto;html=1;exitX=0;exitY=0;exitDx=0;exitDy=0;entryX=0;entryY=0.5;entryDx=0;entryDy=0;" parent="1" source="7DByCaR6NHAsQpXdXXvd-120" target="7DByCaR6NHAsQpXdXXvd-113" edge="1">
          <mxGeometry relative="1" as="geometry">
            <Array as="points">
              <mxPoint x="293" y="1112" />
              <mxPoint x="293" y="841" />
            </Array>
          </mxGeometry>
        </mxCell>
        <mxCell id="7DByCaR6NHAsQpXdXXvd-120" value="" style="ellipse;whiteSpace=wrap;html=1;" parent="1" vertex="1">
          <mxGeometry x="312.5" y="1120" width="120" height="80" as="geometry" />
        </mxCell>
        <mxCell id="7DByCaR6NHAsQpXdXXvd-121" value="CU19&lt;br&gt;Ver Usuarios" style="text;html=1;align=center;verticalAlign=middle;whiteSpace=wrap;rounded=0;" parent="1" vertex="1">
          <mxGeometry x="317.5" y="1145" width="110" height="30" as="geometry" />
        </mxCell>
        <mxCell id="cynZXW6-LG8qErR7lAh7-4" style="edgeStyle=orthogonalEdgeStyle;rounded=0;orthogonalLoop=1;jettySize=auto;html=1;exitX=1;exitY=0.5;exitDx=0;exitDy=0;entryX=0;entryY=0.5;entryDx=0;entryDy=0;" parent="1" source="UcJuo04WGB9nIGAPmIQf-15" target="cynZXW6-LG8qErR7lAh7-1" edge="1">
          <mxGeometry relative="1" as="geometry" />
        </mxCell>
        <mxCell id="UcJuo04WGB9nIGAPmIQf-15" value="" style="ellipse;whiteSpace=wrap;html=1;" parent="1" vertex="1">
          <mxGeometry x="293.5" y="500" width="120" height="80" as="geometry" />
        </mxCell>
        <mxCell id="UcJuo04WGB9nIGAPmIQf-16" value="CU08&lt;br&gt;Ver Disponibilidad" style="text;html=1;align=center;verticalAlign=middle;whiteSpace=wrap;rounded=0;" parent="1" vertex="1">
          <mxGeometry x="298.5" y="525" width="110" height="30" as="geometry" />
        </mxCell>
        <mxCell id="UcJuo04WGB9nIGAPmIQf-17" value="" style="ellipse;whiteSpace=wrap;html=1;" parent="1" vertex="1">
          <mxGeometry x="640" y="505" width="120" height="80" as="geometry" />
        </mxCell>
        <mxCell id="UcJuo04WGB9nIGAPmIQf-18" value="CU10&lt;br&gt;Modificar Turno" style="text;html=1;align=center;verticalAlign=middle;whiteSpace=wrap;rounded=0;" parent="1" vertex="1">
          <mxGeometry x="645" y="530" width="110" height="30" as="geometry" />
        </mxCell>
        <mxCell id="UcJuo04WGB9nIGAPmIQf-19" value="" style="ellipse;whiteSpace=wrap;html=1;" parent="1" vertex="1">
          <mxGeometry x="780" y="505" width="120" height="80" as="geometry" />
        </mxCell>
        <mxCell id="UcJuo04WGB9nIGAPmIQf-20" value="CU11&lt;br&gt;Eliminar Turno" style="text;html=1;align=center;verticalAlign=middle;whiteSpace=wrap;rounded=0;" parent="1" vertex="1">
          <mxGeometry x="785" y="530" width="110" height="30" as="geometry" />
        </mxCell>
        <mxCell id="UcJuo04WGB9nIGAPmIQf-21" style="edgeStyle=orthogonalEdgeStyle;rounded=0;orthogonalLoop=1;jettySize=auto;html=1;exitX=1;exitY=0.5;exitDx=0;exitDy=0;entryX=0;entryY=0.5;entryDx=0;entryDy=0;" parent="1" source="UcJuo04WGB9nIGAPmIQf-24" target="UcJuo04WGB9nIGAPmIQf-15" edge="1">
          <mxGeometry relative="1" as="geometry" />
        </mxCell>
        <mxCell id="UcJuo04WGB9nIGAPmIQf-22" style="edgeStyle=orthogonalEdgeStyle;rounded=0;orthogonalLoop=1;jettySize=auto;html=1;exitX=1;exitY=1;exitDx=0;exitDy=0;entryX=0.5;entryY=1;entryDx=0;entryDy=0;" parent="1" source="UcJuo04WGB9nIGAPmIQf-24" target="UcJuo04WGB9nIGAPmIQf-17" edge="1">
          <mxGeometry relative="1" as="geometry">
            <Array as="points">
              <mxPoint x="248" y="600" />
              <mxPoint x="700" y="600" />
            </Array>
          </mxGeometry>
        </mxCell>
        <mxCell id="UcJuo04WGB9nIGAPmIQf-53" style="edgeStyle=orthogonalEdgeStyle;rounded=0;orthogonalLoop=1;jettySize=auto;html=1;exitX=0.5;exitY=1;exitDx=0;exitDy=0;entryX=0.5;entryY=1;entryDx=0;entryDy=0;" parent="1" source="UcJuo04WGB9nIGAPmIQf-24" target="UcJuo04WGB9nIGAPmIQf-19" edge="1">
          <mxGeometry relative="1" as="geometry">
            <Array as="points">
              <mxPoint x="206" y="620" />
              <mxPoint x="840" y="620" />
            </Array>
          </mxGeometry>
        </mxCell>
        <mxCell id="UcJuo04WGB9nIGAPmIQf-24" value="" style="ellipse;whiteSpace=wrap;html=1;" parent="1" vertex="1">
          <mxGeometry x="145.5" y="500" width="120" height="80" as="geometry" />
        </mxCell>
        <mxCell id="UcJuo04WGB9nIGAPmIQf-25" value="CU7&lt;div&gt;Ver Turnos&lt;/div&gt;" style="text;html=1;align=center;verticalAlign=middle;whiteSpace=wrap;rounded=0;" parent="1" vertex="1">
          <mxGeometry x="150.5" y="525" width="110" height="30" as="geometry" />
        </mxCell>
        <mxCell id="UcJuo04WGB9nIGAPmIQf-26" value="&lt;b&gt;&lt;font style=&quot;font-size: 14px;&quot;&gt;Turnos&lt;/font&gt;&lt;/b&gt;" style="text;html=1;align=center;verticalAlign=middle;whiteSpace=wrap;rounded=0;" parent="1" vertex="1">
          <mxGeometry x="492.25" y="470" width="80" height="30" as="geometry" />
        </mxCell>
        <mxCell id="UcJuo04WGB9nIGAPmIQf-32" value="" style="rounded=0;whiteSpace=wrap;html=1;" parent="1" vertex="1">
          <mxGeometry x="675" y="750" width="615.5" height="180" as="geometry" />
        </mxCell>
        <mxCell id="UcJuo04WGB9nIGAPmIQf-33" value="" style="ellipse;whiteSpace=wrap;html=1;" parent="1" vertex="1">
          <mxGeometry x="844" y="790" width="120" height="80" as="geometry" />
        </mxCell>
        <mxCell id="UcJuo04WGB9nIGAPmIQf-34" value="CU28&lt;br&gt;Registrar Médico" style="text;html=1;align=center;verticalAlign=middle;whiteSpace=wrap;rounded=0;" parent="1" vertex="1">
          <mxGeometry x="849" y="815" width="110" height="30" as="geometry" />
        </mxCell>
        <mxCell id="UcJuo04WGB9nIGAPmIQf-35" value="" style="ellipse;whiteSpace=wrap;html=1;" parent="1" vertex="1">
          <mxGeometry x="1000.5" y="790" width="120" height="80" as="geometry" />
        </mxCell>
        <mxCell id="UcJuo04WGB9nIGAPmIQf-36" value="CU29&lt;br&gt;Modificar Médico" style="text;html=1;align=center;verticalAlign=middle;whiteSpace=wrap;rounded=0;" parent="1" vertex="1">
          <mxGeometry x="1005.5" y="815" width="110" height="30" as="geometry" />
        </mxCell>
        <mxCell id="UcJuo04WGB9nIGAPmIQf-37" value="" style="ellipse;whiteSpace=wrap;html=1;" parent="1" vertex="1">
          <mxGeometry x="1150.5" y="790" width="120" height="80" as="geometry" />
        </mxCell>
        <mxCell id="UcJuo04WGB9nIGAPmIQf-38" value="CU30&lt;br&gt;Eliminar Médico" style="text;html=1;align=center;verticalAlign=middle;whiteSpace=wrap;rounded=0;" parent="1" vertex="1">
          <mxGeometry x="1155.5" y="815" width="110" height="30" as="geometry" />
        </mxCell>
        <mxCell id="UcJuo04WGB9nIGAPmIQf-39" style="edgeStyle=orthogonalEdgeStyle;rounded=0;orthogonalLoop=1;jettySize=auto;html=1;exitX=1;exitY=0.5;exitDx=0;exitDy=0;entryX=0;entryY=0.5;entryDx=0;entryDy=0;" parent="1" source="UcJuo04WGB9nIGAPmIQf-42" target="UcJuo04WGB9nIGAPmIQf-33" edge="1">
          <mxGeometry relative="1" as="geometry" />
        </mxCell>
        <mxCell id="UcJuo04WGB9nIGAPmIQf-40" style="edgeStyle=orthogonalEdgeStyle;rounded=0;orthogonalLoop=1;jettySize=auto;html=1;exitX=1;exitY=1;exitDx=0;exitDy=0;entryX=0.5;entryY=1;entryDx=0;entryDy=0;" parent="1" source="UcJuo04WGB9nIGAPmIQf-42" target="UcJuo04WGB9nIGAPmIQf-35" edge="1">
          <mxGeometry relative="1" as="geometry">
            <Array as="points">
              <mxPoint x="798.5" y="890" />
              <mxPoint x="1060.5" y="890" />
            </Array>
          </mxGeometry>
        </mxCell>
        <mxCell id="UcJuo04WGB9nIGAPmIQf-41" style="edgeStyle=orthogonalEdgeStyle;rounded=0;orthogonalLoop=1;jettySize=auto;html=1;exitX=1;exitY=1;exitDx=0;exitDy=0;entryX=0.5;entryY=1;entryDx=0;entryDy=0;" parent="1" source="UcJuo04WGB9nIGAPmIQf-42" target="UcJuo04WGB9nIGAPmIQf-37" edge="1">
          <mxGeometry relative="1" as="geometry">
            <Array as="points">
              <mxPoint x="798.5" y="910" />
              <mxPoint x="1210.5" y="910" />
            </Array>
          </mxGeometry>
        </mxCell>
        <mxCell id="UcJuo04WGB9nIGAPmIQf-42" value="" style="ellipse;whiteSpace=wrap;html=1;" parent="1" vertex="1">
          <mxGeometry x="696" y="790" width="120" height="80" as="geometry" />
        </mxCell>
        <mxCell id="UcJuo04WGB9nIGAPmIQf-43" value="CU27&lt;div&gt;Ver Médicos&lt;/div&gt;" style="text;html=1;align=center;verticalAlign=middle;whiteSpace=wrap;rounded=0;" parent="1" vertex="1">
          <mxGeometry x="701" y="815" width="110" height="30" as="geometry" />
        </mxCell>
        <mxCell id="UcJuo04WGB9nIGAPmIQf-44" value="&lt;b&gt;&lt;font style=&quot;font-size: 14px;&quot;&gt;Médicos&lt;/font&gt;&lt;/b&gt;" style="text;html=1;align=center;verticalAlign=middle;whiteSpace=wrap;rounded=0;" parent="1" vertex="1">
          <mxGeometry x="949.13" y="760" width="67.25" height="30" as="geometry" />
        </mxCell>
        <mxCell id="ezu5WunfCK91MkvCIrWm-9" style="edgeStyle=orthogonalEdgeStyle;rounded=0;orthogonalLoop=1;jettySize=auto;html=1;entryX=0.5;entryY=1;entryDx=0;entryDy=0;" edge="1" parent="1" target="UcJuo04WGB9nIGAPmIQf-42">
          <mxGeometry relative="1" as="geometry">
            <mxPoint x="640" y="1140" as="sourcePoint" />
          </mxGeometry>
        </mxCell>
        <mxCell id="ezu5WunfCK91MkvCIrWm-11" style="edgeStyle=orthogonalEdgeStyle;rounded=0;orthogonalLoop=1;jettySize=auto;html=1;entryX=0;entryY=0.5;entryDx=0;entryDy=0;" edge="1" parent="1" target="cynZXW6-LG8qErR7lAh7-20">
          <mxGeometry relative="1" as="geometry">
            <mxPoint x="640" y="1140" as="sourcePoint" />
          </mxGeometry>
        </mxCell>
        <mxCell id="ezu5WunfCK91MkvCIrWm-12" style="edgeStyle=orthogonalEdgeStyle;rounded=0;orthogonalLoop=1;jettySize=auto;html=1;entryX=0.5;entryY=0;entryDx=0;entryDy=0;" edge="1" parent="1" target="UcJuo04WGB9nIGAPmIQf-83">
          <mxGeometry relative="1" as="geometry">
            <mxPoint x="640" y="1140" as="sourcePoint" />
          </mxGeometry>
        </mxCell>
        <mxCell id="ezu5WunfCK91MkvCIrWm-13" style="edgeStyle=orthogonalEdgeStyle;rounded=0;orthogonalLoop=1;jettySize=auto;html=1;entryX=1;entryY=0.5;entryDx=0;entryDy=0;" edge="1" parent="1" target="7DByCaR6NHAsQpXdXXvd-120">
          <mxGeometry relative="1" as="geometry">
            <mxPoint x="600" y="1140" as="sourcePoint" />
          </mxGeometry>
        </mxCell>
        <mxCell id="UcJuo04WGB9nIGAPmIQf-54" value="Administrador" style="shape=umlActor;verticalLabelPosition=bottom;verticalAlign=top;html=1;outlineConnect=0;" parent="1" vertex="1">
          <mxGeometry x="605" y="1110" width="30" height="60" as="geometry" />
        </mxCell>
        <mxCell id="UcJuo04WGB9nIGAPmIQf-74" value="" style="ellipse;whiteSpace=wrap;html=1;" parent="1" vertex="1">
          <mxGeometry x="844" y="1380" width="120" height="80" as="geometry" />
        </mxCell>
        <mxCell id="UcJuo04WGB9nIGAPmIQf-75" value="CU24&lt;br&gt;Registrar Secretario" style="text;html=1;align=center;verticalAlign=middle;whiteSpace=wrap;rounded=0;" parent="1" vertex="1">
          <mxGeometry x="849" y="1405" width="110" height="30" as="geometry" />
        </mxCell>
        <mxCell id="UcJuo04WGB9nIGAPmIQf-76" value="" style="ellipse;whiteSpace=wrap;html=1;" parent="1" vertex="1">
          <mxGeometry x="1000.5" y="1380" width="120" height="80" as="geometry" />
        </mxCell>
        <mxCell id="UcJuo04WGB9nIGAPmIQf-77" value="CU25&lt;br&gt;Modificar Secretario" style="text;html=1;align=center;verticalAlign=middle;whiteSpace=wrap;rounded=0;" parent="1" vertex="1">
          <mxGeometry x="1005.5" y="1405" width="110" height="30" as="geometry" />
        </mxCell>
        <mxCell id="UcJuo04WGB9nIGAPmIQf-78" value="" style="ellipse;whiteSpace=wrap;html=1;" parent="1" vertex="1">
          <mxGeometry x="1150.5" y="1380" width="120" height="80" as="geometry" />
        </mxCell>
        <mxCell id="UcJuo04WGB9nIGAPmIQf-79" value="CU26&lt;br&gt;Eliminar Secretario" style="text;html=1;align=center;verticalAlign=middle;whiteSpace=wrap;rounded=0;" parent="1" vertex="1">
          <mxGeometry x="1155.5" y="1405" width="110" height="30" as="geometry" />
        </mxCell>
        <mxCell id="UcJuo04WGB9nIGAPmIQf-80" style="edgeStyle=orthogonalEdgeStyle;rounded=0;orthogonalLoop=1;jettySize=auto;html=1;exitX=1;exitY=0.5;exitDx=0;exitDy=0;entryX=0;entryY=0.5;entryDx=0;entryDy=0;" parent="1" source="UcJuo04WGB9nIGAPmIQf-83" target="UcJuo04WGB9nIGAPmIQf-74" edge="1">
          <mxGeometry relative="1" as="geometry" />
        </mxCell>
        <mxCell id="UcJuo04WGB9nIGAPmIQf-81" style="edgeStyle=orthogonalEdgeStyle;rounded=0;orthogonalLoop=1;jettySize=auto;html=1;exitX=1;exitY=1;exitDx=0;exitDy=0;entryX=0.5;entryY=1;entryDx=0;entryDy=0;" parent="1" source="UcJuo04WGB9nIGAPmIQf-83" target="UcJuo04WGB9nIGAPmIQf-76" edge="1">
          <mxGeometry relative="1" as="geometry">
            <Array as="points">
              <mxPoint x="798.5" y="1480" />
              <mxPoint x="1060.5" y="1480" />
            </Array>
          </mxGeometry>
        </mxCell>
        <mxCell id="UcJuo04WGB9nIGAPmIQf-82" style="edgeStyle=orthogonalEdgeStyle;rounded=0;orthogonalLoop=1;jettySize=auto;html=1;exitX=1;exitY=1;exitDx=0;exitDy=0;entryX=0.5;entryY=1;entryDx=0;entryDy=0;" parent="1" source="UcJuo04WGB9nIGAPmIQf-83" target="UcJuo04WGB9nIGAPmIQf-78" edge="1">
          <mxGeometry relative="1" as="geometry">
            <Array as="points">
              <mxPoint x="798.5" y="1500" />
              <mxPoint x="1210.5" y="1500" />
            </Array>
          </mxGeometry>
        </mxCell>
        <mxCell id="UcJuo04WGB9nIGAPmIQf-83" value="" style="ellipse;whiteSpace=wrap;html=1;" parent="1" vertex="1">
          <mxGeometry x="696" y="1380" width="120" height="80" as="geometry" />
        </mxCell>
        <mxCell id="UcJuo04WGB9nIGAPmIQf-84" value="CU23&lt;div&gt;Ver Secretarios&lt;/div&gt;" style="text;html=1;align=center;verticalAlign=middle;whiteSpace=wrap;rounded=0;" parent="1" vertex="1">
          <mxGeometry x="701" y="1405" width="110" height="30" as="geometry" />
        </mxCell>
        <mxCell id="UcJuo04WGB9nIGAPmIQf-85" value="&lt;b&gt;&lt;font style=&quot;font-size: 14px;&quot;&gt;Secretarios&lt;/font&gt;&lt;/b&gt;" style="text;html=1;align=center;verticalAlign=middle;whiteSpace=wrap;rounded=0;" parent="1" vertex="1">
          <mxGeometry x="942.32" y="1350" width="80.87" height="30" as="geometry" />
        </mxCell>
        <mxCell id="cynZXW6-LG8qErR7lAh7-1" value="" style="ellipse;whiteSpace=wrap;html=1;" parent="1" vertex="1">
          <mxGeometry x="472.25" y="500" width="120" height="80" as="geometry" />
        </mxCell>
        <mxCell id="cynZXW6-LG8qErR7lAh7-2" value="CU09&lt;br&gt;Crear Turno" style="text;html=1;align=center;verticalAlign=middle;whiteSpace=wrap;rounded=0;" parent="1" vertex="1">
          <mxGeometry x="477.25" y="525" width="110" height="30" as="geometry" />
        </mxCell>
        <mxCell id="cynZXW6-LG8qErR7lAh7-6" value="" style="ellipse;whiteSpace=wrap;html=1;" parent="1" vertex="1">
          <mxGeometry x="350" y="300" width="120" height="80" as="geometry" />
        </mxCell>
        <mxCell id="cynZXW6-LG8qErR7lAh7-7" value="CU02&lt;br&gt;Registrar Pago" style="text;html=1;align=center;verticalAlign=middle;whiteSpace=wrap;rounded=0;" parent="1" vertex="1">
          <mxGeometry x="355" y="325" width="110" height="30" as="geometry" />
        </mxCell>
        <mxCell id="cynZXW6-LG8qErR7lAh7-18" style="edgeStyle=orthogonalEdgeStyle;rounded=0;orthogonalLoop=1;jettySize=auto;html=1;exitX=1;exitY=0.5;exitDx=0;exitDy=0;entryX=0;entryY=0.5;entryDx=0;entryDy=0;" parent="1" source="cynZXW6-LG8qErR7lAh7-9" target="cynZXW6-LG8qErR7lAh7-15" edge="1">
          <mxGeometry relative="1" as="geometry" />
        </mxCell>
        <mxCell id="cynZXW6-LG8qErR7lAh7-9" value="" style="ellipse;whiteSpace=wrap;html=1;" parent="1" vertex="1">
          <mxGeometry x="1255" y="220" width="120" height="80" as="geometry" />
        </mxCell>
        <mxCell id="cynZXW6-LG8qErR7lAh7-10" value="CU16&lt;br&gt;Acceder Historial Médico" style="text;html=1;align=center;verticalAlign=middle;whiteSpace=wrap;rounded=0;" parent="1" vertex="1">
          <mxGeometry x="1260" y="244" width="110" height="30" as="geometry" />
        </mxCell>
        <mxCell id="cynZXW6-LG8qErR7lAh7-13" value="" style="ellipse;whiteSpace=wrap;html=1;" parent="1" vertex="1">
          <mxGeometry x="1085" y="-30" width="120" height="80" as="geometry" />
        </mxCell>
        <mxCell id="cynZXW6-LG8qErR7lAh7-14" value="CU15&lt;br&gt;Confirmar Asistencia del Paciente" style="text;html=1;align=center;verticalAlign=middle;whiteSpace=wrap;rounded=0;" parent="1" vertex="1">
          <mxGeometry x="1095" y="-5" width="100" height="30" as="geometry" />
        </mxCell>
        <mxCell id="cynZXW6-LG8qErR7lAh7-15" value="" style="ellipse;whiteSpace=wrap;html=1;" parent="1" vertex="1">
          <mxGeometry x="1420" y="220" width="120" height="80" as="geometry" />
        </mxCell>
        <mxCell id="cynZXW6-LG8qErR7lAh7-16" value="CU17&lt;br&gt;Actualizar Historial Médico" style="text;html=1;align=center;verticalAlign=middle;whiteSpace=wrap;rounded=0;" parent="1" vertex="1">
          <mxGeometry x="1425" y="244" width="110" height="30" as="geometry" />
        </mxCell>
        <mxCell id="cynZXW6-LG8qErR7lAh7-20" value="" style="ellipse;whiteSpace=wrap;html=1;" parent="1" vertex="1">
          <mxGeometry x="922.76" y="1100" width="120" height="80" as="geometry" />
        </mxCell>
        <mxCell id="cynZXW6-LG8qErR7lAh7-21" value="CU18&lt;br&gt;Crear Informe Mensual" style="text;html=1;align=center;verticalAlign=middle;whiteSpace=wrap;rounded=0;" parent="1" vertex="1">
          <mxGeometry x="932.76" y="1125" width="100" height="30" as="geometry" />
        </mxCell>
        <mxCell id="xL9Qbi1ejIpjgUSYCxYK-1" value="" style="ellipse;whiteSpace=wrap;html=1;" parent="1" vertex="1">
          <mxGeometry x="1265.5" y="100" width="120" height="80" as="geometry" />
        </mxCell>
        <mxCell id="xL9Qbi1ejIpjgUSYCxYK-2" value="CU13&lt;div&gt;Bloquear Agenda&lt;/div&gt;" style="text;html=1;align=center;verticalAlign=middle;whiteSpace=wrap;rounded=0;" parent="1" vertex="1">
          <mxGeometry x="1270.5" y="125" width="110" height="30" as="geometry" />
        </mxCell>
      </root>
    </mxGraphModel>
  </diagram>
</mxfile>
